<?xml version="1.0" encoding="UTF-8" standalone="no"?>
<svg width="80px" height="80px" viewBox="0 0 80 80" version="1.1" xmlns="http://www.w3.org/2000/svg" xmlns:xlink="http://www.w3.org/1999/xlink" xmlns:sketch="http://www.bohemiancoding.com/sketch/ns">
    <!-- Generator: Sketch 3.0.4 (8054) - http://www.bohemiancoding.com/sketch -->
    <title>reuleaux</title>
    <desc>Created with Sketch.</desc>
    <defs></defs>
    <g id="Welcome" stroke="none" stroke-width="1" fill="none" fill-rule="evenodd" sketch:type="MSPage">
        <g id="Desktop-HD" sketch:type="MSArtboardGroup" transform="translate(-23.000000, -30.000000)">
            <g id="reuleaux" sketch:type="MSLayerGroup" transform="translate(23.000000, 30.000000)">
                <path d="M73.831,77.691 C73.826,77.703 73.821,77.714 73.816,77.726 C73.542,78.364 72.952,78.817 72.263,78.91 C67.331,79.58 62.301,79.77 57.256,79.446 C48.326,68.252 43.065,55.28 41.322,42.014 C41.613,41.765 41.909,41.515 42.207,41.269 C52.51,32.815 64.373,27.534 76.606,25.311 C81.745,41.95 81.225,60.435 73.831,77.691 L73.831,77.691 Z" id="Fill-3" fill="#4A4A4A" sketch:type="MSShapeGroup"></path>
                <path d="M57.256,79.446 C48.849,78.904 40.389,76.941 32.206,73.421 C28.459,71.809 24.909,69.93 21.567,67.815 C26.07,58.164 32.683,49.319 41.322,42.014 C43.065,55.28 48.326,68.252 57.256,79.446 L57.256,79.446 Z" id="Fill-5" fill="#333331" sketch:type="MSShapeGroup"></path>
                <path d="M64.173,1.27 C69.734,8.498 73.936,16.655 76.606,25.311 C64.373,27.534 52.51,32.815 42.207,41.269 C41.909,41.515 41.613,41.765 41.322,42.014 C39.642,29.206 41.24,16.124 45.984,4.079 C51.287,2.289 56.792,1.086 62.395,0.506 C63.079,0.435 63.755,0.726 64.173,1.27 L64.173,1.27 Z" id="Fill-7" fill="#D62F50" sketch:type="MSShapeGroup"></path>
                <path d="M41.322,42.014 C32.683,49.319 26.07,58.164 21.567,67.815 C13.226,62.543 6.188,55.806 0.642,48.102 C0.236,47.539 0.157,46.8 0.43,46.162 C0.435,46.15 0.44,46.138 0.446,46.127 C9.307,25.447 26.246,10.726 45.984,4.079 C41.24,16.124 39.642,29.206 41.322,42.014 L41.322,42.014 Z" id="Fill-9" fill="#D8D8D8" sketch:type="MSShapeGroup"></path>
            </g>
        </g>
    </g>
</svg>